<svg fill="#ffffff" focusable="false" viewBox="0 0 12 12" width="32" height="32" xmlns="http://www.w3.org/2000/svg"><title>Audio available</title><path d="M6 0C2.68573 0 0 2.68573 0 6V8.73736C0 10.5187 1.48129 12 3.26262 12H3.78785V11.0578C4.2899 10.8595 4.60907 10.3691 4.60907 9.8323V7.64241C4.60907 7.10556 4.28989 6.61524 3.78785 6.41698V5.47476H3.26262C2.39306 5.47476 1.62721 5.79438 1.05047 6.32323V6C1.05047 3.29202 3.29202 1.05047 6 1.05047C8.70797 1.05047 10.9495 3.29202 10.9495 6V6.32323C10.3728 5.79438 9.6069 5.47476 8.73736 5.47476H8.21216V6.41698C7.71013 6.61524 7.39092 7.10555 7.39092 7.64241V9.8323C7.39092 10.3692 7.71012 10.8595 8.21216 11.0578V12H8.73736C10.5187 12 12 10.5187 12 8.73736V6C12 2.68573 9.31422 0 6 0Z" fill-rule="evenodd" clip-rule="evenodd"></path></svg>
